<?xml version="1.0" ?><svg data-name="Layer 1" height="24" id="Layer_1" viewBox="0 0 24 24" width="24" xmlns="http://www.w3.org/2000/svg"><title/><path d="M18,10H16V2.60352a.25.25,0,0,0-.42676-.17676L14,4H10L8.42676,2.42676A.25.25,0,0,0,8,2.60352V10H6L1,8A26.77545,26.77545,0,0,0,4,19l2-2,3,1,3,4,3-4,3-1,2,2A26.3876,26.3876,0,0,0,23,8Zm-8,2L9,10h2Zm1.01831-4.13165A1.127,1.127,0,1,1,9.4245,6.27454C9.86462,5.83441,11.45844,7.42822,11.01831,7.86835ZM14.5755,6.27454a1.127,1.127,0,1,1-1.59381,1.59381C12.54156,7.42822,14.13538,5.83441,14.5755,6.27454ZM14,12l-1-2h2Z"/></svg>