<svg width="35" height="45" viewBox="0 0 763.25 878.56">
                <g class="saveplaceicon" fill="#000000" shape-rendering="auto">
                    <path d="m189.26 0c-19.347 1e-3 -35.031 15.684-35.033 35.031v141.9h89.693c38.563 4e-3 69.828 31.265 69.828 69.828v159.29h23.143c27.476 6e-3 52.396 16.123 63.67 41.18s6.8074 54.396-11.412 74.963l-158.53 178.87c-19.82 22.358-50.398 28.755-76.389 19.219v123.18c0.01 29.37 33.978 45.698 56.916 27.355l247.59-198.07 247.6 198.07c22.939 18.342 56.909 2.0148 56.916-27.355v-808.44c-2e-3 -19.347-15.686-35.03-35.033-35.031z"></path>
                    <path d="m112.8 226.94a19.83 19.83 0 0 0-19.828 19.828v209.29h-73.143a19.83 19.83 0 0 0-14.84 32.979l158.53 178.87a19.83 19.83 0 0 0 29.678 0l158.53-178.87a19.83 19.83 0 0 0-14.838-32.979h-73.143v-209.29a19.83 19.83 0 0 0-19.828-19.828zm19.828 39.656h91.467v209.29a19.83 19.83 0 0 0 19.828 19.828h48.9l-114.46 129.15-114.46-129.15h48.902a19.83 19.83 0 0 0 19.828-19.828z"></path>
                    <path d="m112.8 226.94c-10.95 1e-3 -19.827 8.8778-19.828 19.828v209.29h-73.143c-17.092 4e-3 -26.173 20.184-14.84 32.979l158.53 178.87c7.8905 8.9008 21.787 8.9008 29.678 0l158.53-178.87c11.332-12.794 2.2531-32.973-14.838-32.979h-73.143v-209.29c-1e-3 -10.95-8.8778-19.827-19.828-19.828z"></path>
                </g>
            </svg>