<?xml version="1.0" encoding="UTF-8" standalone="no"?>
<!-- Created with Inkscape (http://www.inkscape.org/) -->

<svg
   width="176.30208mm"
   height="115.2056mm"
   viewBox="0 0 176.30208 115.2056"
   version="1.1"
   id="svg1"
   xml:space="preserve"
   xmlns="http://www.w3.org/2000/svg"
   xmlns:svg="http://www.w3.org/2000/svg"><defs
     id="defs1" /><g
     id="layer1"
     transform="translate(-15.814764)"><path
       style="fill:#800000"
       d="m 130.84817,108.27612 c 2.15955,-5.83869 1.74373,-15.654521 1.75433,-29.452449 l 0.0134,-18.22408 0.0134,-18.22407 0.24209,-0.453721 c 0.34365,-0.644053 1.02846,-1.270274 1.87636,-1.715834 0.73706,-0.387313 2.0842,-0.794131 2.62969,-0.794131 h 0.29533 l 0.002,12.452686 c 8.8e-4,6.84897 0.036,12.50201 0.078,12.56231 0.042,0.0603 0.44135,0.28135 0.88739,0.49123 1.19427,0.56196 2.25231,1.33789 3.24107,2.37691 0.48248,0.507 0.92462,0.92182 0.98253,0.92182 0.15813,0 1.10902,-1.17816 1.80428,-2.23554 1.10208,-1.67606 1.9255,-3.6392 2.38244,-5.68005 0.23222,-1.03716 0.24169,-1.25264 0.24154,-5.49899 -1.5e-4,-4.60031 -0.10253,-6.56984 -0.4784,-9.20303 -0.63694,-4.462148 -1.84095,-7.299444 -3.67511,-8.660549 -1.21749,-0.903489 -2.33149,-1.235289 -4.48697,-1.336433 -0.80596,-0.03782 -1.57859,-0.0085 -1.72664,-0.0032 -0.009,3.35e-4 -0.0188,9.1e-4 -0.0285,0.0017 -1.03786,0.0872 -3.95727,2.893654 -7.72476,0.947081 -0.6895,-0.356249 -1.19926,-0.950868 -1.33517,-1.800824 -0.0617,-0.386081 -0.0461,-0.425682 0.19129,-0.485269 0.14218,-0.03569 3.13097,-0.04572 6.64177,-0.0223 l 5.35564,0.03572 c 0.004,-0.02568 0.99712,0.03277 2.11951,0.276921 5.50324,1.197125 8.95087,5.47701 10.03276,11.879022 0.35924,2.12578 0.47966,6.38194 0.26038,9.20303 -0.42396,5.45443 -2.2697,8.92147 -6.39355,12.00968 -1.61771,1.21145 -3.5668,2.40238 -4.78269,2.92233 -1.37357,0.58738 -1.59269,0.63858 -1.67487,0.3914 -0.31911,-0.95981 -1.51623,-2.55807 -1.78953,-2.38916 -0.0941,0.0581 -0.12403,1.76901 -0.12403,7.08064 v 7.004 l -0.65726,0.469 c -0.89693,0.64004 -1.75875,1.59721 -2.14343,2.38058 -0.6288,1.2805 -0.62716,1.25226 -0.62914,10.81055 0,0 0.27491,8.84326 1.05905,9.57683 0.78414,0.73357 1.44512,1.42253 1.96157,2.19246 0.33146,0.49414 0.95973,2.30151 -0.004,3.79296 -0.82404,1.27496 -2.1235,3.3183 -3.82133,3.3302 -2.38573,0.0167 -3.50258,-4.46331 -2.59044,-6.92943 z M 27.785757,87.223131 c -0.05697,-0.0728 -0.152455,-0.27788 -0.212188,-0.45578 -0.484203,-1.44203 -2.503137,-3.07851 -5.056105,-4.09832 -0.450445,-0.17993 -0.897018,-0.30675 -0.992384,-0.28181 -0.09537,0.0249 -0.704308,0.43535 -1.353203,0.91202 l -1.179809,0.86668 -0.297546,-0.33302 c -0.16365,-0.18315 -0.297546,-0.37519 -0.297546,-0.42675 0,-0.0516 0.508717,-0.46931 1.130481,-0.92834 0.621764,-0.45903 1.159907,-0.91128 1.195874,-1.005 0.03597,-0.0937 0.06585,-8.90556 0.06641,-19.58186 l 0.001,-19.41144 0.243105,-0.522054 c 0.316718,-0.680134 1.140479,-1.41412 2.110957,-1.880901 0.809662,-0.389432 2.263411,-0.749901 2.562082,-0.63529 0.165219,0.0634 0.177286,0.698227 0.177286,9.326315 0,5.09206 0.03726,9.25829 0.0828,9.25829 0.04554,0 0.454995,-0.28753 0.909904,-0.63894 1.205002,-0.93087 2.402647,-1.69564 3.390601,-2.16511 0.878117,-0.41728 2.468059,-0.92413 3.035842,-0.96778 0.287228,-0.0221 0.318417,0.0113 0.437189,0.46748 0.160346,0.61589 0.631771,1.43254 0.826955,1.43254 0.214722,0 0.543256,-1.16171 0.746197,-2.63859 0.129589,-0.94307 0.174036,-2.06064 0.176294,-4.43266 0.0027,-2.81398 -0.0222,-3.30653 -0.22065,-4.36754 -0.902839,-4.827139 -3.07984,-7.88739 -6.248068,-8.791957 -0.06191,-0.01767 -0.12419,-0.03453 -0.18685,-0.05055 -1.299398,-0.33233 -15.025037,4.706672 -12.769886,-1.562436 0.0945,-0.07843 2.078517,-0.09911 6.615155,-0.06896 6.058313,0.04026 6.544487,0.057 7.46807,0.257056 5.670036,1.228195 9.684687,5.081426 10.401422,9.983209 0.08074,0.55219 0.107655,1.63387 0.07627,3.06521 -0.04424,2.01738 -0.07305,2.29421 -0.327589,3.1478 -0.589431,1.97663 -1.512348,3.4557 -3.3232,5.32577 -0.715531,0.73893 -1.009195,1.11275 -0.964879,1.22823 0.03504,0.0913 0.464395,0.35378 0.954129,0.58328 0.869795,0.4076 3.538942,1.33783 3.838693,1.33783 0.08293,0 0.417986,-0.18718 0.744574,-0.41596 0.689889,-0.48327 0.888672,-0.51162 1.119297,-0.15964 0.244483,0.37313 0.20907,0.53313 -0.170021,0.7682 -0.18588,0.11526 -0.443253,0.30808 -0.571939,0.42849 l -0.233976,0.21892 -0.0018,6.67724 c -0.0019,7.02511 -0.04807,7.98371 -0.468794,9.73209 -0.432676,1.79804 -1.152525,3.14946 -2.372095,4.45326 -1.131795,1.20996 -2.21127,1.95017 -5.736402,3.9335 -3.188139,1.79372 -3.155615,1.77657 -4.003577,2.11096 -1.095159,0.43187 -1.204067,0.4571 -1.322088,0.30632 z m 4.240882,-3.41276 c 2.277712,-1.53153 3.605545,-3.29115 4.273095,-5.66263 0.232296,-0.82523 0.234468,-0.89753 0.270462,-9.00357 0.02945,-6.63133 0.01071,-8.19132 -0.09941,-8.27595 -0.07464,-0.0574 -0.449499,-0.18685 -0.833031,-0.28775 -1.776333,-0.46734 -3.626259,-1.73664 -4.762093,-3.26743 -0.318601,-0.42938 -0.540451,-0.632 -0.695111,-0.63485 -0.37291,-0.007 -1.983641,1.14988 -3.17848,2.28262 l -1.117882,1.05979 v 10.33429 10.33428 l 0.76301,0.35254 c 1.447698,0.66887 3.19569,2.01631 3.860842,2.97613 0.160554,0.23168 0.357541,0.42124 0.437747,0.42124 0.08021,0 0.566591,-0.28292 1.080855,-0.62871 z m 18.325733,2.17066 c -1.020536,-1.40464 -2.625907,-2.82875 -3.944633,-3.49924 l -0.430233,-0.21875 -0.557663,0.39188 c -0.306714,0.21554 -0.85528,0.61156 -1.219034,0.88004 -0.363754,0.26849 -0.717615,0.48816 -0.786359,0.48816 -0.148147,0 -0.60851,-0.59443 -0.560998,-0.72437 0.01812,-0.0495 0.524285,-0.45667 1.124822,-0.90473 l 1.091884,-0.81464 0.02613,-40.789692 L 45.122418,0 h 2.599595 2.599594 l 0.0016,40.269744 c 8.76e-4,22.148357 0.03597,40.317567 0.07799,40.376007 0.04202,0.0584 0.403965,0.31575 0.804322,0.57178 0.826368,0.52848 2.242772,1.88426 2.747898,2.63029 0.432781,0.63919 0.385171,0.84507 -0.381224,1.64856 -0.603529,0.63273 -1.496822,1.14899 -2.218616,1.28218 -0.368904,0.0681 -0.376939,0.0617 -1.001196,-0.79753 z m 13.997235,0.36639 c -0.482176,-0.70105 -1.865958,-2.12291 -2.79719,-2.87415 -1.08966,-0.87906 -2.57979,-1.8424 -2.845081,-1.83929 -0.122427,10e-4 -0.735563,0.37579 -1.362524,0.83191 -0.626961,0.45612 -1.196804,0.82931 -1.266318,0.82931 -0.150441,0 -0.55744,-0.49354 -0.55744,-0.67597 0,-0.0704 0.491348,-0.51272 1.091885,-0.98298 l 1.091885,-0.85501 v -10.96619 -10.96618 l 0.492883,-0.52693 c 1.071326,-1.14534 3.519097,-2.7572 6.195821,-4.07996 1.584532,-0.78304 3.918265,-1.72865 4.257373,-1.72507 0.15057,0.002 0.342885,0.15262 0.544709,0.42777 0.640888,0.87373 2.059053,1.87976 4.226907,2.99851 l 1.102664,0.56905 0.431937,-0.30907 c 0.237566,-0.16999 0.651935,-0.46508 0.920821,-0.65574 l 0.488884,-0.34667 0.287984,0.32231 c 0.158391,0.17727 0.287984,0.36652 0.287984,0.42056 0,0.054 -0.350963,0.35781 -0.779917,0.67504 l -0.779918,0.57677 -7.28e-4,8.50036 c -6.9e-4,8.04816 -0.01144,8.54461 -0.201969,9.33227 -1.06715,4.41152 -3.485853,7.79159 -7.437857,10.39419 -0.990006,0.65197 -2.210904,1.26479 -2.720097,1.36534 -0.299641,0.0592 -0.353485,0.0239 -0.672698,-0.44018 z m 3.895487,-3.57441 c 0.727737,-0.78604 1.447018,-2.21683 1.750154,-3.48139 0.219873,-0.91722 0.225146,-1.12948 0.264156,-10.63372 l 0.03981,-9.69782 -0.642053,-0.38912 c -1.180091,-0.71519 -2.222234,-1.54097 -3.027157,-2.39869 -0.438789,-0.46756 -0.853101,-0.85012 -0.920695,-0.85012 -0.185695,0 -1.441731,0.68644 -1.98298,1.08373 l -0.477813,0.35072 -0.06781,5.6521 c -0.03729,3.10866 -0.09842,8.32047 -0.135846,11.5818 l -0.06804,5.92969 0.873632,0.56749 c 0.976985,0.63463 2.661159,1.96685 3.207787,2.53743 0.1971,0.20574 0.414336,0.37408 0.482747,0.37408 0.06841,0 0.38526,-0.28178 0.70411,-0.62618 z m 16.137603,3.48598 c -0.520103,-0.75517 -1.949305,-2.18303 -3.016071,-3.01323 -1.046223,-0.81422 -2.328459,-1.61439 -2.586994,-1.61439 -0.107978,0 -0.703406,0.37436 -1.323174,0.83191 -0.619767,0.45756 -1.190661,0.83192 -1.268653,0.83192 -0.140455,0 -0.596871,-0.5362 -0.596871,-0.70121 0,-0.0471 0.449961,-0.43509 0.999913,-0.86212 0.549952,-0.42704 1.064698,-0.86873 1.143879,-0.98155 0.120416,-0.17156 0.143966,-1.99354 0.143966,-11.13773 v -10.93262 l 0.545943,-0.5145 c 0.710577,-0.66965 1.872638,-1.53687 3.041678,-2.26992 1.844212,-1.15642 6.039007,-3.12786 7.112046,-3.34246 0.303179,-0.0606 0.372304,-0.0257 0.665766,0.33681 0.828952,1.0239 1.788799,1.72532 3.815469,2.78822 0.82628,0.43335 1.531782,0.78791 1.567782,0.78791 0.036,0 0.455347,-0.28156 0.931881,-0.62569 l 0.866427,-0.62569 0.293494,0.28118 c 0.161421,0.15466 0.293493,0.33989 0.293493,0.41164 0,0.0717 -0.292469,0.35101 -0.649931,0.62057 -0.357463,0.26957 -0.708425,0.56202 -0.779918,0.64989 -0.101631,0.12491 -0.129986,2.01794 -0.129986,8.67798 0,9.38121 0.04343,8.68733 -0.681484,10.88798 -0.723837,2.19738 -2.050586,4.36692 -3.679539,6.01691 -1.844912,1.86872 -4.681307,3.78015 -5.967486,4.02144 -0.317787,0.0596 -0.361371,0.0289 -0.74163,-0.52325 z m 3.78158,-3.27876 c 0.852344,-0.82717 1.542641,-2.1405 1.911435,-3.63662 0.211914,-0.85968 0.218867,-1.15079 0.253779,-10.625 l 0.0359,-9.74109 -0.237982,-0.16469 c -0.13089,-0.0906 -0.682534,-0.45254 -1.225877,-0.80434 -0.62756,-0.40633 -1.360941,-1.01621 -2.010635,-1.67204 -0.825214,-0.83301 -1.066643,-1.02138 -1.250066,-0.97535 -0.418841,0.10512 -2.093216,1.18325 -2.223187,1.43151 -0.09363,0.17884 -0.129033,1.10525 -0.130592,3.41703 -0.0012,1.74441 -0.05065,6.82168 -0.109948,11.2828 -0.05929,4.46113 -0.08198,8.20474 -0.05042,8.31912 0.03156,0.11439 0.396217,0.41811 0.81034,0.67493 0.877466,0.54416 2.54816,1.8656 3.139806,2.48344 0.226085,0.23609 0.466116,0.42926 0.533403,0.42926 0.06729,0 0.316608,-0.18854 0.554047,-0.41896 z m 16.032573,2.91878 c -0.77569,-0.9714 -2.18406,-2.28878 -3.29675,-3.08376 -0.914194,-0.65315 -1.819934,-1.18388 -2.020434,-1.18388 -0.09517,0 -0.689913,0.37436 -1.321658,0.83191 -0.631746,0.45756 -1.206608,0.83192 -1.277472,0.83192 -0.127689,0 -0.319798,-0.20033 -0.518134,-0.54031 -0.0856,-0.14674 0.07623,-0.32054 0.963655,-1.03496 0.586592,-0.47224 1.100911,-0.90763 1.142931,-0.96753 0.04202,-0.0599 0.07712,-5.02643 0.07799,-11.03671 l 0.0016,-10.92778 0.701926,-0.67 c 1.329332,-1.26888 3.059346,-2.3939 5.745406,-3.73622 1.57386,-0.78652 3.78197,-1.71373 4.35326,-1.82799 0.2433,-0.0487 0.32708,0.003 0.5659,0.34739 0.15418,0.22248 0.4426,0.56179 0.64094,0.75403 0.30931,0.29979 0.37028,0.32433 0.42856,0.17245 0.12958,-0.33766 -0.0396,-8.47582 -0.20558,-9.89221 -0.64025,-5.462085 -1.34111,-8.688819 -4.25759,-19.601933 -1.42036,-5.314782 -1.93882,-7.511646 -2.40504,-10.190923 -0.54671,-3.141765 -0.59533,-3.824496 -0.6499,-9.125035 L 102.81486,0 h 2.12876 2.12876 l 0.0589,3.40564 c 0.10813,6.253988 0.67513,9.17519 4.1125,21.187761 2.20196,7.695199 3.00214,10.93667 3.64519,14.766439 0.69747,4.153851 0.7344,5.197291 0.73607,20.797801 l 0.001,13.83054 -0.25274,1.03989 c -1.00668,4.14199 -3.05776,7.21318 -6.50896,9.74621 -1.4528,1.0663 -2.8247,1.828 -3.59465,1.99581 -0.30692,0.0669 -0.35616,0.0269 -1.07324,-0.87108 z m 4.22513,-3.08161 c 0.64976,-0.68712 1.37997,-2.09764 1.71757,-3.3178 0.22892,-0.82738 0.23036,-0.88566 0.26338,-10.6866 l 0.0332,-9.85468 -0.63684,-0.38824 c -1.18431,-0.72197 -2.26442,-1.58271 -3.05795,-2.43686 l -0.79001,-0.85038 -0.49175,0.23762 c -0.27047,0.13069 -0.82553,0.44839 -1.23349,0.70601 l -0.74173,0.4684 -0.0637,3.39521 c -0.035,1.86736 -0.0877,5.78176 -0.11699,8.69865 -0.0293,2.91689 -0.0817,6.59777 -0.11652,8.17973 l -0.0633,2.8763 0.41635,0.29537 c 0.22899,0.16245 0.8519,0.59954 1.38424,0.9713 0.53234,0.37176 1.34481,1.03674 1.80549,1.47774 0.46069,0.441 0.90607,0.80366 0.98974,0.80591 0.0837,0.002 0.3997,-0.2577 0.70229,-0.57768 z m 67.37488,3.46748 c -0.49876,-0.75101 -1.40254,-1.77855 -2.06175,-2.34409 -0.55859,-0.47921 -2.06781,-1.49658 -2.39133,-1.612 -0.11963,-0.0427 -0.5673,0.22173 -1.38087,0.81559 -0.66212,0.48331 -1.24513,0.87874 -1.29558,0.87874 -0.15338,0 -0.63603,-0.6343 -0.56729,-0.74552 0.0354,-0.0572 0.51531,-0.43442 1.06659,-0.83829 0.55127,-0.40386 1.06081,-0.80661 1.1323,-0.89498 0.1035,-0.12794 0.12999,-8.45407 0.12999,-40.852509 V 0 h 2.5476 2.5476 l 0.0261,40.318827 0.0261,40.318824 0.7516,0.49652 c 1.3671,0.90311 3.14798,2.78607 3.14798,3.32841 0,0.31051 -0.64282,1.12799 -1.20375,1.53082 -0.54986,0.39488 -1.5345,0.83117 -1.88436,0.83495 -0.16152,0.002 -0.3346,-0.15741 -0.59099,-0.54347 z m 12.44495,-0.30385 c -1.02054,-1.40464 -2.62591,-2.82875 -3.94463,-3.49924 l -0.43024,-0.21875 -0.55766,0.39188 c -0.30671,0.21554 -0.85528,0.61156 -1.21903,0.88004 -0.36376,0.26849 -0.71762,0.48816 -0.78636,0.48816 -0.14815,0 -0.60851,-0.59443 -0.561,-0.72437 0.0181,-0.0495 0.52428,-0.45667 1.12482,-0.90473 l 1.09189,-0.81464 0.0162,-25.378167 0.01,-15.411525 L 183.0118,0 h 2.5996 2.59959 l 0.002,40.269744 c 8.8e-4,22.148357 0.036,40.317567 0.078,40.376007 0.042,0.0584 0.40397,0.31575 0.80433,0.57178 0.82636,0.52848 2.24277,1.88426 2.74789,2.63029 0.43279,0.63919 0.38518,0.84507 -0.38122,1.64856 -0.60353,0.63273 -1.49682,1.14899 -2.21862,1.28218 -0.3689,0.0681 -0.37693,0.0617 -1.00119,-0.79753 z m -25.29839,0.0406 c -0.25644,-0.38424 -0.86477,-1.09907 -1.35186,-1.58851 -0.92121,-0.92565 -2.68636,-2.17972 -3.06165,-2.17519 -0.11864,0.001 -0.72868,0.37579 -1.35564,0.83191 -0.62696,0.45612 -1.1968,0.82931 -1.26632,0.82931 -0.16783,0 -0.57341,-0.52259 -0.5354,-0.68986 0.0165,-0.0725 0.5213,-0.49678 1.12184,-0.94285 l 1.09189,-0.81103 0.0264,-11.87728 0.0264,-11.87728 -0.77886,-0.52557 c -0.42837,-0.28906 -1.09077,-0.81707 -1.47199,-1.17334 -0.75235,-0.70311 -1.70161,-1.88934 -1.70161,-2.12639 0,-0.2616 0.62374,-1.06412 1.15096,-1.48087 0.28184,-0.22278 0.76799,-0.50067 1.08035,-0.61754 1.08692,-0.40667 1.00266,-0.43109 1.64108,0.47561 0.96195,1.36618 2.16057,2.47327 3.68916,3.40744 0.35545,0.21723 0.71505,0.36857 0.7991,0.33631 0.0841,-0.0323 0.59047,-0.38187 1.12538,-0.77692 1.37574,-1.01607 1.34805,-1.00516 1.67761,-0.66117 0.15133,0.15795 0.27515,0.34134 0.27515,0.40752 0,0.0662 -0.51475,0.50035 -1.14388,0.96481 l -1.14388,0.84449 v 11.88502 11.88503 l 0.8403,0.55168 c 1.00732,0.66131 2.20115,1.80303 2.75051,2.63044 l 0.40007,0.60255 -0.19626,0.36444 c -0.32867,0.61031 -1.30791,1.43239 -2.06929,1.73719 -1.00465,0.40219 -1.07714,0.38295 -1.61963,-0.42995 z m -5.18849,-36.65576 c -0.0813,-0.0813 -0.11666,-1.11813 -0.11666,-3.42351 0,-1.81876 -0.0351,-3.30581 -0.078,-3.30453 -0.0429,0.001 -0.19498,0.0938 -0.33797,0.20566 -0.36377,0.28455 -0.45619,0.2609 -0.66131,-0.16926 -0.17972,-0.37686 -0.17957,-0.37776 0.14874,-0.91948 0.82744,-1.36526 1.96336,-2.42797 3.32028,-3.106272 0.93061,-0.465201 2.34661,-0.875936 2.63639,-0.764735 0.154,0.05909 0.17131,0.391898 0.17131,3.29266 0,1.774807 0.0279,3.226927 0.0619,3.226927 0.0341,0 0.19753,-0.0966 0.36325,-0.21456 0.34267,-0.244 0.44745,-0.20942 0.67011,0.22115 0.14274,0.27603 0.14122,0.33785 -0.0158,0.64334 -0.38595,0.75099 -0.99942,1.53559 -1.74533,2.23219 -1.04574,0.9766 -2.12637,1.53496 -4.18301,2.16136 -0.0645,0.0197 -0.16982,-0.0168 -0.23398,-0.0809 z"
       id="path2" /></g></svg>
