<svg width="666" height="565" viewBox="0 0 666 565" fill="none" xmlns="http://www.w3.org/2000/svg">
<path fill-rule="evenodd" clip-rule="evenodd" d="M412.431 -108.051C413.142 -108.051 413.4 -110.114 412.824 -111.189C411.868 -112.975 409.753 -112.747 409.753 -110.856C409.753 -109.586 411.219 -108.051 412.431 -108.051ZM569.678 -96.5325C573.083 -97.3862 574.979 -103.588 572.79 -106.712C570.261 -110.32 565.524 -106.008 565.858 -100.404C566.066 -96.9439 567.108 -95.8873 569.678 -96.5325ZM474.104 -101.865C475.141 -101.865 476.601 -103.468 476.601 -104.608C476.601 -105.069 475.098 -105.055 473.866 -104.583C472.428 -104.031 472.617 -101.865 474.104 -101.865ZM601.878 -99.3206C602.513 -100.022 602.852 -101.017 602.642 -101.564C602.328 -102.383 601.618 -102.476 598.389 -102.123C593.246 -101.561 591.493 -100.575 589.94 -97.367C586.424 -90.1082 588.462 -82.3848 594.006 -81.9629C596.515 -81.7718 597.719 -82.8364 599.573 -86.8859C600.774 -89.5106 601.052 -91.0157 600.912 -94.1292C600.772 -97.2501 600.971 -98.3191 601.878 -99.3206ZM615.523 -90.5437C617.574 -88.4942 621.392 -91.3331 619.557 -93.5434C618.602 -94.694 617.718 -94.6779 616.006 -93.4784C614.398 -92.3532 614.301 -91.7655 615.523 -90.5437ZM627.871 -88.8741C628.682 -88.8741 629.485 -90.1299 629.485 -91.3992C629.485 -91.7116 628.928 -91.9672 628.247 -91.9672C627.339 -91.9672 627.009 -91.5545 627.009 -90.4206C627.009 -89.5113 627.364 -88.8741 627.871 -88.8741ZM579.218 -85.6196C579.448 -88.8098 579.297 -89.5447 578.18 -90.6606C576.522 -92.3179 576.175 -92.2993 574.178 -90.4503C572.762 -89.1388 572.54 -88.4367 572.54 -85.2676C572.54 -83.0665 572.849 -81.3629 573.314 -81.0041C576.468 -78.5655 578.841 -80.4214 579.218 -85.6196ZM614.011 -78.3948C614.011 -79.087 613.274 -80.3366 612.373 -81.1711C611.472 -82.005 610.47 -82.688 610.145 -82.688C608.928 -82.688 605.988 -78.8043 605.587 -76.6658C604.875 -72.8737 607.42 -70.844 609.752 -73.345C610.924 -74.6027 612.122 -75.0505 615.249 -75.4007C616.134 -75.4997 616.796 -75.9704 616.796 -76.5018C616.796 -77.0951 616.294 -77.3766 615.403 -77.2825C614.367 -77.1724 614.011 -77.457 614.011 -78.3948ZM505.916 -75.2646C507.139 -75.2646 507.723 -77.0932 506.839 -78.1579C506.208 -78.9181 505.984 -78.9138 505.196 -78.1275C504.151 -77.0821 504.608 -75.2646 505.916 -75.2646ZM660.176 -72.2433C663.768 -71.2579 666.331 -74.2575 664.333 -77.1087C663.293 -78.5928 662.357 -78.6608 659.485 -77.4613C656.288 -76.1263 656.676 -73.2028 660.176 -72.2433ZM495.541 -69.0785C496.203 -72.6621 496.174 -75.2003 495.445 -77.5844C495.134 -78.602 493.027 -78.5766 492.17 -77.5448C491.754 -77.0431 491.573 -74.4969 491.697 -70.8947C491.893 -65.243 491.945 -65.0575 493.348 -65.0575C494.643 -65.0575 494.877 -65.4856 495.541 -69.0785ZM560.966 -73.4088C562.114 -73.4088 563.256 -74.7041 563.256 -76.0069C563.256 -76.7821 562.786 -77.1204 561.708 -77.1204C560.402 -77.1204 560.161 -76.8315 560.161 -75.2646C560.161 -74.1542 560.484 -73.4088 560.966 -73.4088ZM619.581 -70.0713C619.581 -72.5464 619.316 -73.4966 618.498 -73.9581C617.836 -74.3317 617.335 -74.3435 617.209 -73.989C617.095 -73.6698 616.469 -73.4088 615.816 -73.4088C614.76 -73.4088 614.63 -72.9337 614.63 -69.0785C614.63 -65.047 614.723 -64.7482 615.973 -64.7482C618.407 -64.7482 619.581 -66.4815 619.581 -70.0713ZM389.437 -64.7482C389.327 -65.5988 388.781 -66.6467 388.224 -67.076C386.879 -68.1141 385.968 -67.7435 385.721 -66.0578C385.456 -64.2533 386.722 -62.7853 388.344 -63.0173C389.328 -63.1577 389.589 -63.5716 389.437 -64.7482ZM418.625 -52.8399C418.826 -54.4557 419.176 -57.1009 419.404 -58.7167C419.775 -61.3538 419.694 -61.6551 418.617 -61.6551C416.035 -61.6551 412.229 -56.9858 412.229 -53.8179C412.229 -52.1971 412.596 -51.5996 414.055 -50.8455C417.327 -49.1542 418.217 -49.542 418.625 -52.8399ZM472.638 -55.9274C472.925 -57.3576 472.701 -58.1296 471.714 -59.1163C468.992 -61.837 464.222 -59.9372 464.222 -56.1315C464.222 -53.6639 465.697 -52.3759 468.523 -52.3759C471.165 -52.3759 472.087 -53.1715 472.638 -55.9274ZM565.722 -50.9686C565.711 -52.9357 565.199 -53.8909 563.875 -54.4111C561.976 -55.1566 560.556 -54.5479 560.087 -52.7873C559.831 -51.8229 559.775 -50.632 559.964 -50.1415C561.047 -47.3206 565.738 -47.9949 565.722 -50.9686ZM583.33 -41.3671C585.274 -41.6448 585.446 -45.1332 583.579 -46.4397C581.828 -47.6652 581.556 -47.6664 580.547 -46.4514C579.364 -45.0268 581.51 -41.1072 583.33 -41.3671ZM345.747 -26.7728C348.127 -32.1516 347.559 -34.4064 343.215 -36.8073C342.534 -37.1834 340.077 -37.5001 337.754 -37.5106C330.132 -37.544 325.741 -33.5057 327.812 -28.3669C329.311 -24.6472 331.263 -22.7747 334.747 -21.715C340.203 -20.0559 343.432 -21.5399 345.747 -26.7728ZM573.03 -22.9856C575.094 -24.2327 576.062 -26.2457 575.412 -27.9395C574.937 -29.1767 570.764 -29.1661 568.989 -27.9227C567.387 -26.8012 566.503 -23.0617 567.544 -21.8084C568.37 -20.8131 570.022 -21.1675 573.03 -22.9856ZM317.507 -19.9383C316.667 -20.8415 315.423 -21.8109 314.742 -22.0923C312.781 -22.9033 312.576 -22.7901 312.576 -20.8953C312.576 -17.4317 316.753 -14.7883 318.348 -17.2418C318.896 -18.0855 318.729 -18.625 317.507 -19.9383ZM305.735 -9.96686C307.304 -11.6359 307.14 -14.0077 305.314 -16.0324C303.158 -18.4233 299.762 -16.8762 299.171 -13.2326C298.466 -8.88618 302.727 -6.76615 305.735 -9.96686ZM287.842 -4.13459C291.088 -5.47822 290.953 -9.5246 287.608 -11.1732C283.068 -13.4113 281.131 -11.3173 282.989 -6.18095C283.867 -3.75475 285.383 -3.11574 287.842 -4.13459ZM616.399 -8.61402C614.75 -7.64033 614.592 -7.26668 614.757 -4.74769L614.939 -1.95895L617.927 -1.76842C619.599 -1.66203 621.303 -1.89954 621.796 -2.30782C622.997 -3.30379 622.908 -7.17387 621.652 -8.56018C620.367 -9.9799 618.741 -9.996 616.399 -8.61402ZM298.085 5.066C298.753 3.98714 298.511 0.848961 297.685 -0.145767C295.974 -2.20699 293.388 -0.692642 293.388 2.37135C293.388 3.42608 293.722 4.62313 294.131 5.03142C295.074 5.97356 297.511 5.99516 298.085 5.066ZM237.575 7.33755C237.925 4.38367 237.139 2.65465 235.029 1.73786C232.413 0.600853 231.171 0.615753 229.988 1.79668C228.624 3.16073 228.773 4.50988 230.581 7.1693C233.136 10.928 237.138 11.0245 237.575 7.33755ZM602.381 20.7751C604.394 18.4602 604.201 14.5184 602.003 13.0517C600.577 12.1003 597.067 12.5809 595.636 13.9233C593.914 15.5416 593.703 19.0424 595.228 20.7262C596.6 22.2412 601.079 22.2715 602.381 20.7751ZM620.346 24.0507C621.309 20.1998 621.323 19.609 620.486 18.3328C619.962 17.5337 619.71 17.1254 619.365 17.0191C618.996 16.9055 618.521 17.1361 617.497 17.6028C615.759 18.394 615.269 19.7389 615.257 23.75C615.247 27.0014 616.354 28.8956 618.075 28.5709C618.986 28.3989 619.528 27.32 620.346 24.0507ZM230.254 23.1264C230.254 22.2511 228.453 21.0949 226.382 20.6408C223.992 20.1162 223.692 20.2295 223.278 21.8131C222.653 24.2022 227.449 26.4279 229.281 24.5975C229.816 24.063 230.254 23.4005 230.254 23.1264ZM618.653 53.4069C620.119 53.4069 621.438 52.3225 621.438 51.1181C621.438 50.5774 620.526 50.3139 618.653 50.3139C616.78 50.3139 615.868 50.5774 615.868 51.1181C615.868 52.3225 617.187 53.4069 618.653 53.4069ZM222.732 54.0428C224.139 52.753 224.149 52.6702 223.07 51.4787C220.702 48.8626 215.135 51.4329 212.602 56.3138C211.51 58.4177 211.891 58.9744 214.422 58.9744C216.388 58.9744 219.127 57.3487 222.732 54.0428ZM233.893 55.4013C234.499 54.2699 233.801 52.304 232.473 51.4057C232.103 51.1558 230.966 50.9491 229.945 50.9467C228.544 50.943 227.903 51.3396 227.337 52.5582C226.677 53.9792 226.752 54.312 227.956 55.3166C229.747 56.8106 233.113 56.8588 233.893 55.4013ZM594.764 58.5148C595.923 57.7613 595.874 54.6813 594.692 53.9315C592.562 52.5811 590.49 53.9025 590.49 56.612C590.49 57.9581 590.848 58.4221 592.133 58.7444C593.037 58.9714 594.221 58.8674 594.764 58.5148ZM641.864 71.481C641.864 70.7652 641.245 69.7464 640.488 69.2168C638.797 68.0328 638.056 68.0179 635.429 69.1147C630.795 71.0498 630.871 80.6903 635.52 80.6061C636.83 80.5826 641.864 73.3424 641.864 71.481ZM8.09106 78.1274C9.57159 77.3355 9.63104 75.9325 8.21735 75.1413C6.8222 74.3612 4.95166 75.3516 4.95166 76.8697C4.95166 78.324 6.53687 78.9588 8.09106 78.1274ZM647.255 85.8111C648.339 84.3301 648.26 82.1582 647.081 80.9792C645.752 79.651 645.385 79.7314 643.122 81.8446C640.325 84.4557 640.685 86.4316 644.006 86.7025C645.797 86.8485 646.672 86.6085 647.255 85.8111ZM591.1 84.457C591.087 82.3178 590.511 81.448 588.616 80.7112C586.906 80.0462 584.231 80.4589 583.536 81.4945C582.776 82.6284 583.009 85.3794 583.931 86.144C586.947 88.645 591.118 87.6639 591.1 84.457ZM617.003 92.5893C618.321 91.7634 619.86 86.1501 619.338 84.0715C619.02 82.8053 618.56 82.4818 617.078 82.4818C614.84 82.4818 614.011 84.1446 614.011 88.6326C614.011 92.035 615.257 93.6836 617.003 92.5893ZM209.983 101.151C212.334 98.9047 212.941 97.0767 211.53 96.4921C211.105 96.3158 209.643 96.2713 208.281 96.3931C206.919 96.515 205.188 96.6362 204.433 96.6622C203.678 96.6882 202.07 97.7008 200.858 98.9115C199.09 100.678 198.382 101.017 197.278 100.624C193.329 99.2189 189.402 100.981 189.402 104.158C189.402 107.781 195.698 109.372 199.352 106.671C200.342 105.94 202.059 105.17 203.169 104.96C206.014 104.421 207.331 103.685 209.983 101.151ZM143.555 109.082C144.941 109.082 146.861 107.379 146.37 106.585C145.801 105.664 142.361 107.34 142.361 108.539C142.361 108.838 142.899 109.082 143.555 109.082ZM30.2338 108.723C30.1593 108.373 29.8499 108.073 29.293 107.516C28.5385 106.762 27.6552 106.58 26.0435 106.846C24.8259 107.048 20.8881 107.216 17.2932 107.219C11.5752 107.226 10.5861 107.385 9.40137 108.488C7.70294 110.069 7.58972 113.124 9.19653 113.984C10.6251 114.748 13.075 114.827 19.8068 114.326C26.2613 113.846 28.268 113.127 29.4298 110.882C30.0511 109.681 30.3273 109.163 30.2338 108.723ZM625.53 111.071C624.973 109.994 623.755 108.694 622.823 108.18C620.601 106.956 618.508 107.48 615.964 109.898C612.03 113.636 610.059 117.106 610.059 120.295C610.059 123.7 611.043 125.166 613.33 125.166C615.558 125.166 617.334 123.809 619.642 120.345C620.709 118.743 622.698 116.442 624.062 115.23L626.543 113.028L625.53 111.071ZM187.1 119.65C190.737 118.268 191.705 114.932 189.341 111.927C187.915 110.116 186.619 110.164 183.832 112.133C181.936 113.472 181.578 115.8 182.882 118.32C183.92 120.327 184.685 120.568 187.1 119.65ZM165.311 117.79C168.128 114.974 167.351 111.571 163.716 110.804C163.035 110.661 161.863 110.76 161.112 111.025C159.235 111.685 154.741 116.141 154.741 117.339C154.741 118.79 156.736 119.599 160.318 119.599C163.011 119.599 163.78 119.32 165.311 117.79ZM605.926 157.372C607.42 155.879 607.569 154.078 606.303 152.812C605.617 152.126 603.694 151.918 598.192 151.933L590.981 151.953L588.249 155.417C582.462 162.755 583.555 168.7 590.49 167.61C593.259 167.175 594.823 165.255 594.823 162.29C594.823 159.009 596.009 158.243 600.748 158.465C604.013 158.618 604.857 158.44 605.926 157.372ZM103.986 164.84C103.986 164.51 104.155 163.8 104.361 163.262C104.971 161.674 99.2921 161.882 98.4367 163.479C97.525 165.182 97.6432 166.422 98.7592 166.85C99.8925 167.285 103.986 165.71 103.986 164.84ZM89.4487 168.778C91.0815 168.778 91.3198 168.544 91.4907 166.768C91.6621 164.995 91.5056 164.757 90.1742 164.757C88.3835 164.757 87.0862 166.111 87.3857 167.666C87.5349 168.441 88.1613 168.778 89.4487 168.778ZM116.365 168.531C116.365 167.11 116.052 166.648 114.972 166.474C111.919 165.98 111.194 167.297 113.174 169.741C114.691 171.614 116.365 170.98 116.365 168.531ZM53.8497 178.315C53.8497 178.052 53.4487 177.436 52.9584 176.945C52.1978 176.186 51.6036 176.174 48.9191 176.87C47.1879 177.32 45.0128 178.225 44.085 178.884C43.1578 179.542 41.3541 180.516 40.0778 181.048C38.4487 181.727 37.7567 182.4 37.7567 183.303C37.7567 185.409 39.1518 185.356 44.7528 183.039C47.6749 181.83 50.4077 180.841 50.8261 180.841C51.6908 180.841 53.8497 179.038 53.8497 178.315ZM601.631 186.099C603.303 183.577 603.202 181.117 601.35 179.267C597.735 175.654 593.857 178.615 594.633 184.396C594.816 185.764 594.638 187.876 594.238 189.09C593.215 192.186 594.17 193.832 596.989 193.832C599.363 193.832 600.391 192.586 600.398 189.697C600.4 188.739 600.955 187.12 601.631 186.099ZM39.2465 194.985C42.1661 193.868 42.7084 193.419 42.7084 192.122C42.7084 190.761 42.5054 190.625 40.9449 190.937C38.5068 191.424 34.6619 193.779 34.6619 194.785C34.6619 196.281 35.7339 196.328 39.2465 194.985ZM110.94 200.798C111.099 198.498 111.115 196.407 110.976 196.152C110.599 195.466 109.696 195.583 107.823 196.561C104.941 198.065 102.642 200.954 102.536 203.204C102.441 205.23 102.5 205.281 105.174 205.472C110.232 205.833 110.612 205.525 110.94 200.798ZM119.108 205.961C122.979 204.99 124.986 201.299 122.82 199.134C120.873 197.189 116.172 198.114 115.121 200.65C113.807 203.821 115.998 206.741 119.108 205.961ZM61.6604 201.137C60.831 202.478 62.1221 203.63 65.5252 204.584C67.478 205.132 70.0121 206.271 71.1566 207.114C75.4354 210.27 80.3011 210.635 82.7014 207.982C83.3439 207.272 84.9136 206.272 86.1905 205.761C87.4668 205.251 88.5116 204.48 88.5116 204.048C88.5116 202.74 87.7602 202.329 79.2272 198.985C75.2386 197.421 63.0333 198.916 61.6604 201.137ZM14.5722 215.204C16.7534 213.024 16.561 209.252 14.2361 208.61C11.9955 207.992 11.9646 207.993 10.2729 208.764C9.42249 209.151 8.43646 210.301 8.08179 211.318C6.53064 215.764 11.2087 218.565 14.5722 215.204ZM122.262 214.401C126.149 215.143 132.034 212.352 130.798 210.353C130.58 210.001 128.739 209.908 126.336 210.129C123.206 210.416 121.991 210.814 121.165 211.821C119.879 213.39 120.136 213.995 122.262 214.401ZM101.251 231.943C100.009 232.419 99.9748 234.414 101.2 234.885C102.464 235.369 103.897 234.745 104.62 233.395C105.081 232.533 104.97 232.211 104.138 231.994C102.434 231.548 102.287 231.546 101.251 231.943ZM637.316 243.202C638.777 243.41 640.626 241.326 640.626 239.472C640.626 238.094 638.899 238.041 637.015 239.36C635.24 240.602 635.423 242.932 637.316 243.202ZM80.1389 246.041C81.2735 245.212 81.2648 245.139 79.8505 243.635C78.1155 241.789 75.5134 241.53 75.5134 243.203C75.5134 245.733 78.2567 247.416 80.1389 246.041ZM100.697 250.315C103.169 250.795 105.529 249.167 104.866 247.439C104.438 246.325 102.62 246.319 98.8792 247.417C96.8156 248.023 97.9137 249.774 100.697 250.315ZM91.6405 253.487C92.8698 252.006 89.372 248.8 85.9151 248.239C81.4066 247.507 79.9774 247.606 76.6034 248.888C74.8121 249.569 72.0776 250.125 70.5252 250.125C67.0701 250.126 65.4156 251.2 65.7059 253.254C65.9065 254.672 66.1683 254.769 69.9427 254.83C72.1555 254.866 76.6374 255.098 79.9024 255.345C86.2214 255.823 90.2274 255.189 91.6405 253.487ZM40.6559 262.998C43.3125 263.255 44.6135 261.168 42.9448 259.324C42.2714 258.581 41.2315 258.181 40.2647 258.293C38.9073 258.451 38.6851 258.782 38.6851 260.642C38.6851 262.623 38.8528 262.824 40.6559 262.998ZM509.743 280.156C511.509 278.393 511.723 275.785 510.239 274.146C508.894 272.661 507.955 272.719 506.036 274.406C503.984 276.211 503.358 279.253 504.751 280.646C506.204 282.098 507.975 281.924 509.743 280.156ZM530.94 280.753C531.122 278.557 530.948 277.016 530.451 276.418C529.514 275.289 526.72 275.204 525.364 276.262C524.819 276.688 523.767 278.472 523.027 280.228C521.91 282.875 521.07 283.796 518.099 285.629C514.118 288.085 513.169 289.692 512.571 294.988C512.205 298.239 512.09 298.412 509.406 299.762C506.92 301.011 506.6 301.416 506.426 303.525C506.319 304.824 506.562 306.285 506.966 306.772C507.826 307.807 510.22 307.927 511.916 307.02C513.317 306.271 514.977 303.294 514.977 301.53C514.977 300.605 515.521 300.188 517.113 299.889C518.288 299.669 520.273 298.604 521.523 297.524C523.477 295.836 523.841 295.1 524.111 292.303C524.373 289.577 524.688 288.909 526.044 288.203C529.214 286.555 530.639 284.387 530.94 280.753ZM528.824 302.708C530.587 302.708 531.349 301.853 530.818 300.47C530.258 299.012 527.703 299.658 527.467 301.316C527.308 302.443 527.566 302.708 528.824 302.708ZM3.70386 305.158C3.2749 304.124 2.34338 302.871 1.63403 302.374C0.924072 301.877 0.266174 301.471 0.171448 301.471C0.0773926 301.471 0 303.242 0 305.406C0 309.257 0.0327759 309.335 1.5282 309.049C3.9397 308.589 4.62054 307.371 3.70386 305.158ZM77.6055 308.157C79.7458 308.598 80.8909 304.275 78.7629 303.788C77.283 303.45 76.7253 304.048 76.5718 306.142C76.4764 307.445 76.7519 307.982 77.6055 308.157ZM484.873 314.428C486.603 310.439 486.559 308.115 484.733 307.049C483.242 306.178 482.458 306.279 479.35 307.739C477.372 308.668 476.186 309.757 475.334 311.426C473.016 315.967 474.117 319.048 478.051 319.031C482.247 319.012 483.148 318.404 484.873 314.428ZM330.111 311.696C329.76 310.017 329.107 308.982 328.05 308.427C326.262 307.487 322.967 307.814 320.959 309.129C318.962 310.436 317.529 313.862 316.701 319.305C316.089 323.338 315.789 324.077 314.708 324.232C312.853 324.497 311.435 322.564 310.72 318.796C309.973 314.856 309.929 314.798 308.371 315.631C307.328 316.188 307.117 317.102 306.896 322.022C306.717 325.991 306.32 328.243 305.606 329.321C304.391 331.155 303.587 336.988 304.144 339.926C304.359 341.061 305.205 342.825 306.024 343.846L307.513 345.702L314.146 345.557C317.83 345.478 321.144 345.111 321.599 344.734C322.357 344.105 323.09 342.692 325.833 336.572C326.542 334.991 327.559 333.962 329.014 333.355C331.783 332.198 332.819 329.756 331.435 327.646C330.559 326.309 330.163 326.194 327.704 326.562C324.731 327.008 322.473 326.04 321.277 323.807C320.342 322.061 322.456 319.766 326.259 318.399C329.976 317.063 330.898 315.458 330.111 311.696ZM76.6152 315.831C77.5851 314.352 77.556 314.246 75.7932 312.836C73.3446 310.878 72.7206 310.973 70.2139 313.688C67.759 316.347 67.7151 317.595 70.0455 318.414C72.1425 319.151 75.2355 317.935 76.6152 315.831ZM439.967 315.904C439.308 315.307 437.462 314.637 435.866 314.414C430.475 313.661 429.56 313.744 429.56 314.99C429.56 315.621 430.256 316.888 431.107 317.805C432.363 319.159 432.655 320.108 432.655 322.83V326.184L434.666 325.788C437.88 325.154 440.607 323.835 441.273 322.591C442.137 320.979 441.399 317.199 439.967 315.904ZM338.907 319.942C340.492 320.253 341.795 318.331 341.003 316.851C340.248 315.442 338.39 315.356 337.291 316.679C336.311 317.86 337.173 319.601 338.907 319.942ZM471.395 327.248C472.649 322.069 472.518 319.447 470.923 317.749C470.182 316.962 469.512 316.318 469.433 316.318C468.566 316.318 463.85 319.411 463.191 320.413C462.231 321.872 460.899 331.947 461.441 333.654C461.631 334.252 462.634 335.093 463.668 335.521C466.239 336.586 469.59 335.06 470.141 332.574C470.35 331.628 470.915 329.232 471.395 327.248ZM58.4622 323.741C59.5807 323.741 63.7531 319.519 63.7531 318.388C63.7531 316.947 62.0671 317.477 59.7739 319.638C57.5004 321.781 56.874 323.741 58.4622 323.741ZM29.8055 321.266C30.4412 321.266 31.0955 318.912 30.6566 318.202C30.2741 317.584 27.2585 318.428 26.6277 319.33C26.4507 319.583 24.0077 321.136 21.1995 322.782C17.7104 324.826 16.093 326.137 16.093 326.922C16.093 328.993 18.9266 328.21 24.2503 324.669C27.0635 322.797 29.5629 321.266 29.8055 321.266ZM357.58 323.654C357.4 322.314 356.915 320.811 356.502 320.314C354.247 317.598 347.857 321.117 347.857 325.075C347.857 328.085 352.955 329.334 356.3 327.143C357.7 326.226 357.864 325.777 357.58 323.654ZM523.093 332.372C527.428 330.578 528.093 322.963 524.066 321.235C523.322 320.916 521.321 320.83 519.619 321.044C517.917 321.258 514.901 321.466 512.916 321.505C510.112 321.56 509.111 321.844 508.428 322.776C506.458 325.468 507.727 327.524 512.989 330.163C518.269 332.812 520.731 333.35 523.093 332.372ZM294.387 329.88C294.653 328.269 294.471 327.386 293.717 326.632C291.102 324.019 285.342 327.046 285.342 331.033C285.342 333.616 287.482 336.113 289.695 336.113C291.44 336.113 294 334.119 294.014 332.749C294.018 332.388 294.185 331.097 294.387 329.88ZM362.381 329.927C363.811 329.927 365.188 328.429 365.188 326.875C365.188 325.977 362.518 326.038 361.598 326.958C360.274 328.281 360.708 329.927 362.381 329.927ZM434.867 330.885C434.645 329.699 434.036 328.303 433.514 327.782C430.99 325.259 425.6 329.008 424.817 333.83C424.408 336.346 425.595 337.75 428.609 338.315C432.458 339.037 435.68 335.212 434.867 330.885ZM500.739 344.393C503.012 342.339 503.89 340.086 502.831 339.027C502.314 338.51 498.602 341.383 497.382 343.244C494.922 346.996 497.049 347.724 500.739 344.393ZM523.642 346.403C523.642 343.973 522.232 341.851 520.387 341.506C515.671 340.622 512.854 345.129 515.076 350.003C516.696 353.556 523.642 350.637 523.642 346.403ZM350.456 348.609C350.819 348.247 350.95 347.518 350.748 346.991C350.325 345.888 348.739 346.29 348.225 347.629C347.797 348.744 349.551 349.514 350.456 348.609ZM300.506 358.383C301.711 350.57 301.677 349.909 299.983 348.216C298.469 346.703 295.887 346.641 294.711 348.09C293.172 349.987 288.436 360.321 288.436 361.784C288.436 364.068 290.574 366.875 293.284 368.15C294.524 368.734 295.913 369.993 296.372 370.948C298.318 375.005 303.292 374.214 303.292 369.848C303.292 368.154 302.922 367.514 301.435 366.636C300.739 366.225 300.274 366.005 300.003 365.641C299.437 364.879 299.72 363.485 300.506 358.383ZM339.81 351.44C339.81 350.194 339.405 349.522 338.418 349.129C337.652 348.824 336.607 348.677 336.097 348.8C335.586 348.923 332.661 349.513 329.597 350.11C326.534 350.708 323.686 351.45 323.269 351.759C321.766 352.875 321.695 356.221 323.103 359.493C324.66 363.111 326.243 364.769 327.85 364.462C328.47 364.344 329.981 362.75 331.207 360.921C332.634 358.79 334.303 357.176 335.85 356.43C338.802 355.007 339.81 353.737 339.81 351.44ZM316.719 354.824C317.055 352.32 316.982 352.168 315.022 351.344C312.514 350.29 310.007 350.995 308.594 353.15C306.528 356.3 308.109 359.62 311.675 359.62C314.535 359.62 316.301 357.941 316.719 354.824ZM284.104 354.941C284.104 352.865 283.918 350.98 283.691 350.754C283.464 350.527 282.044 350.341 280.534 350.341C278.239 350.341 277.446 350.685 275.686 352.445C273.913 354.217 273.581 354.988 273.581 357.348C273.581 360.158 274.045 360.825 277.52 363.023C278.059 363.363 278.651 364.616 278.836 365.807C279.021 366.997 279.33 368.737 279.522 369.673C279.809 371.077 279.653 371.374 278.633 371.374C276.443 371.374 275.513 372.057 274.811 374.182C273.938 376.826 274.858 378.797 276.965 378.797C278.648 378.797 281.009 375.956 281.009 373.93C281.009 373.229 281.532 372.375 282.171 372.033C284.323 370.882 284.09 365.11 281.836 363.764C281.18 363.373 281.33 362.794 282.555 360.992C283.789 359.178 284.104 357.948 284.104 354.941ZM37.41 355.754C37.4744 355.329 37.4231 354.772 37.2962 354.517C36.1808 352.281 28.0836 358.432 26.728 362.545C26.3666 363.643 26.27 364.665 26.5132 364.816C26.7571 364.966 28.2024 364.139 29.7256 362.976C31.2489 361.815 33.5397 360.163 34.8167 359.306C36.093 358.45 37.1724 357.474 37.2151 357.138C37.2578 356.802 37.345 356.18 37.41 355.754ZM387.47 362.347C387.47 360.084 387.206 359.573 385.459 358.454C381.117 355.676 377.567 357.904 377.567 363.41C377.567 367.13 378.751 368.9 381.239 368.9C384.706 368.9 387.47 365.992 387.47 362.347ZM91.495 368.9C93.8403 368.9 96.3644 366.136 95.2478 364.791C94.8641 364.329 94.4307 363.951 94.2853 363.951C93.5239 363.951 90.3685 365.917 90.3685 366.391C90.3685 366.694 90.1995 367.383 89.9927 367.921C89.7012 368.681 90.0367 368.9 91.495 368.9ZM454.598 374.525C456.183 371.462 455.831 369.051 453.452 366.673C450.657 363.879 447.814 363.797 444.822 366.422C440.588 370.138 440.235 375.17 444.045 377.522C445.18 378.224 446.911 378.796 447.892 378.795C450.288 378.792 453.423 376.796 454.598 374.525ZM111.303 381.553C113.107 382.116 115.127 380.447 115.127 378.392C115.127 376.58 114.209 376.567 111.282 378.338C108.845 379.813 108.851 380.789 111.303 381.553ZM84.9093 378.643C84.6494 380.475 85.4744 380.403 87.3207 378.434L88.8211 376.833L86.9642 377.042C85.5895 377.196 85.056 377.612 84.9093 378.643ZM72.4056 381.573C73.2375 382.087 75.6354 380.732 75.1848 380.004C74.5992 379.057 71.7996 379.308 71.7996 380.307C71.7996 380.798 72.0726 381.367 72.4056 381.573ZM629.895 386.635C630.533 385.998 629.488 383.131 628.12 381.764L626.786 380.431L626.193 381.758C625.757 382.736 625.877 383.506 626.651 384.686C627.734 386.339 629.269 387.261 629.895 386.635ZM319.47 395.955C322.133 392.119 323.928 383.944 322.487 382.209C322.059 381.694 321.508 381.272 321.262 381.272C320.067 381.272 318.602 384.036 317.611 388.158C317.009 390.665 316.014 393.762 315.402 395.04C314.504 396.913 314.437 397.543 315.055 398.288C316.305 399.792 317.095 399.374 319.47 395.955ZM370.911 390.768C370.866 387.775 370.177 386.629 367.354 384.849C365.058 383.401 360.845 383.676 358.463 385.43C356.153 387.131 354.53 392.174 355.344 395.122C356.157 398.061 358.355 399.458 362.082 399.402C367.726 399.316 370.992 396.123 370.911 390.768ZM291.745 395.986C291.947 395.215 291.776 394.408 291.353 394.14C290.976 393.9 290.782 393.753 290.57 393.717C290.252 393.662 289.891 393.854 288.8 394.351C287.538 394.926 287.363 395.27 287.865 396.206C288.744 397.849 291.296 397.704 291.745 395.986ZM311.705 413.852C311.508 412.208 311.18 410.592 310.976 410.261C310.771 409.93 310.142 409.748 309.578 409.857C308.683 410.028 308.535 411.273 308.415 419.611C308.287 428.516 308.378 429.381 309.738 432.285C310.541 433.998 311.386 436.286 311.617 437.368C311.848 438.45 312.433 439.665 312.918 440.067C315.402 442.128 316.995 437.756 315.414 433.216C314.884 431.696 314.447 428.694 314.442 426.545C314.437 424.136 313.979 421.528 313.247 419.74C312.595 418.146 311.901 415.497 311.705 413.852ZM192.989 418.619C194.118 419.317 196.83 415.632 196.83 413.4C196.83 412.596 195.477 412.711 194.304 413.614C193.239 414.433 192.258 418.168 192.989 418.619ZM223.625 426.875C224.722 426.455 225.399 421.817 224.651 419.85C223.366 416.473 220.667 419.242 221.152 423.441C221.472 426.209 222.314 427.378 223.625 426.875ZM489.672 432.859C495.571 425.508 497.027 423.38 497.027 422.108C497.027 419.62 494.852 421.069 490.791 426.261C488.988 428.566 486.564 431.33 485.405 432.403C483.082 434.553 482.918 436.521 485.036 436.825C486.009 436.964 487.188 435.956 489.672 432.859ZM73.1793 444.061C74.9081 442.185 75.9777 438.817 75.2287 437.606C74.0273 435.663 70.7078 438.48 65.2176 446.101C60.4305 452.745 57.1451 461.692 59.4916 461.692C60.5042 461.692 64.2855 457.421 65.7029 454.677C67.202 451.775 70.8681 446.569 73.1793 444.061ZM303.813 448.985C303.993 445.404 303.811 444.002 303.006 442.774L301.967 441.188L300.749 442.591C299.719 443.779 299.559 444.75 299.71 448.912C299.849 452.763 300.118 453.974 300.953 454.498C302.731 455.615 303.558 454.019 303.813 448.985ZM236.62 447.349C238.41 447.095 238.836 444.131 237.323 442.46C235.954 440.948 235.916 440.957 235.156 442.954C234.212 445.437 234.929 447.59 236.62 447.349ZM91.5186 451.54C93.1879 448.376 92.5659 447.365 88.4083 446.481C86.5928 446.095 84.77 445.74 84.3577 445.693C83.5692 445.603 81.084 447.966 81.084 448.805C81.084 449.074 79.9811 449.856 78.6336 450.544C75.8978 451.939 73.828 453.938 71.1256 457.796C68.5433 461.483 68.1973 463.74 70.0189 465.015C72.3926 466.677 73.8818 466.217 80.5691 461.755C87.5634 457.089 89.5862 455.202 91.5186 451.54ZM310.006 466.568C310.02 464.78 309.891 463.091 309.72 462.814C308.687 461.144 307.32 463.192 306.698 467.341C306.227 470.477 306.626 471.086 308.647 470.322C309.774 469.896 309.984 469.314 310.006 466.568ZM54.4495 479.013C55.4522 479.013 57.6495 476.559 57.2398 475.897C56.6821 474.995 54.7181 475.183 53.8565 476.221C53.0302 477.216 53.4121 479.013 54.4495 479.013ZM472.164 498.674C473.34 495.587 472.669 492.499 470.311 490.142C468.608 488.441 468.061 488.253 465.29 488.417C462.761 488.567 461.952 488.908 460.956 490.246C458.254 493.876 461.363 500.777 466.189 501.859C469.214 502.537 471.069 501.548 472.164 498.674ZM292.485 499.687C291.648 499.477 290.639 498.915 290.243 498.438C288.089 495.845 286.573 499.157 286.138 507.406C285.828 513.267 285.915 514.295 286.749 514.615C288.542 515.302 290.159 513.807 290.622 511.034C290.864 509.583 291.725 507.084 292.535 505.479C294.446 501.692 294.433 500.176 292.485 499.687ZM134.953 528.465C135.813 526.86 135.163 523.751 133.802 522.957C131.871 521.831 130.032 522.21 129.629 523.818C129.229 525.409 129.725 527.682 130.753 528.966C131.724 530.179 134.193 529.885 134.953 528.465ZM256.899 532.832C258.445 532.832 258.894 531.911 258.414 529.724C257.908 527.422 255.937 527.199 255.389 529.381C254.885 531.391 255.515 532.832 256.899 532.832ZM349.482 548.172C351.521 548.469 352.006 547.15 352.464 540.052C352.897 533.37 352.895 533.354 351.52 533.557C350.365 533.727 349.921 534.577 348.762 538.83C347.171 544.669 347.418 547.872 349.482 548.172ZM221.293 540.627C222.401 537.975 222.453 536.418 221.465 535.43C220.453 534.419 218.187 534.494 217.295 535.568C216.887 536.06 216.649 537.763 216.756 539.434C216.931 542.183 217.082 542.436 218.662 542.618C220.119 542.785 220.516 542.484 221.293 540.627ZM105.294 553.577C108.297 547.645 112.651 537.701 112.651 536.773C112.651 536.307 112.215 535.925 111.682 535.925C109.857 535.925 108.322 537.205 107.019 539.812C106.301 541.247 104.496 543.676 103.007 545.212C100.084 548.225 96.9412 555.67 97.299 558.737C97.7651 562.743 102.054 559.975 105.294 553.577ZM337.908 560.974C338.616 557.416 338.591 556.769 337.698 555.406C336.657 553.819 335.221 553.397 334.55 554.481C334.341 554.82 334.047 557.325 333.897 560.049L333.626 565H335.367C337.015 565 337.15 564.785 337.908 560.974ZM219.953 562.68C220.602 558.759 220.415 554.609 219.577 554.326C217.084 553.488 216.018 555.969 216.018 562.612C216.018 564.829 216.145 565 217.794 565C219.365 565 219.614 564.733 219.953 562.68ZM537.878 564.422C537.878 563.292 536.552 560.378 535.828 559.919C535.424 559.661 533.896 559.447 532.433 559.442C529.618 559.432 527.23 561.194 526.553 563.78C526.252 564.93 526.566 565 532.056 565C535.258 565 537.878 564.74 537.878 564.422Z" fill="#471E1E"/>
<path fill-rule="evenodd" clip-rule="evenodd" d="M399.776 -53.1492C400.492 -52.5541 401.448 -50.9766 401.9 -49.6441C402.61 -47.5575 403.104 -47.1066 405.465 -46.3921C407.041 -45.9145 409.616 -44.3048 411.526 -42.6012C414.272 -40.1533 414.894 -39.2168 415.117 -37.1927C415.457 -34.1015 415.883 -33.6988 419.158 -33.3758C422.598 -33.0356 424.329 -31.3734 425.254 -27.5207C426.128 -23.8764 427.751 -22.7808 430.925 -23.6908C432.689 -24.1969 432.996 -24.607 433.422 -27.032C433.926 -29.9042 433.344 -30.8791 429.924 -32.8896C429.345 -33.2298 428.597 -34.7374 428.261 -36.24C427.925 -37.7426 426.827 -39.9096 425.82 -41.0559C424.813 -42.2022 423.989 -43.5619 423.989 -44.0784C423.989 -45.6107 426.684 -49.8736 427.902 -50.2671C429.642 -50.8294 431.317 -48.8374 431.78 -45.6547C432.247 -42.436 433.464 -39.6931 434.752 -38.952C435.225 -38.6798 436.225 -37.1475 436.974 -35.5472C437.723 -33.9462 439.562 -31.5064 441.062 -30.1244L443.789 -27.6122L446.114 -28.6298C447.392 -29.1897 449.552 -29.8566 450.914 -30.1114C456.996 -31.2497 462.147 -32.7579 463.205 -33.7105C463.837 -34.2796 464.752 -35.7389 465.239 -36.9526C465.878 -38.5487 466.871 -39.523 468.823 -40.4713C470.308 -41.192 472.596 -43.1097 473.907 -44.733C479.854 -52.0926 481.97 -52.8609 484.119 -48.4397C485.406 -45.792 487.916 -43.7153 489.828 -43.7153C490.359 -43.7153 491.808 -44.6049 493.047 -45.6924C495.264 -47.6379 499.746 -48.8257 504.571 -48.7471C506.553 -48.7149 512.789 -45.6714 515.438 -43.4437C516.474 -42.5721 517.681 -41.8595 518.12 -41.8595C518.559 -41.8595 520.051 -41.3318 521.435 -40.6872C522.819 -40.0426 525.163 -39.3696 526.643 -39.1914C529.96 -38.7924 532.021 -36.9978 533.848 -32.9193L535.22 -29.8559L540.012 -29.8262C544.575 -29.7978 544.875 -29.7081 546.3 -27.9407C547.123 -26.92 547.96 -25.0926 548.16 -23.8795C548.448 -22.1276 549.234 -21.1229 551.986 -18.9949C555.302 -16.4307 555.532 -16.3516 557.342 -17.1372C558.381 -17.5882 560.486 -17.9074 562.018 -17.8462C563.55 -17.7849 566.539 -17.6903 568.661 -17.6365C571.871 -17.5548 572.582 -17.3389 572.895 -16.3522C573.103 -15.6996 573.177 -15.0853 573.061 -14.9863C572.945 -14.8879 571.71 -14.098 570.318 -13.2313L567.785 -11.6557L567.383 -3.73066C566.865 6.49254 566.713 6.30508 574.52 5.04991C577.686 4.54079 580.764 4.24944 581.36 4.40223C583.405 4.92805 582.608 7.30167 579.681 9.40248C578.162 10.4931 576.762 11.64 576.569 11.9512C576.377 12.2623 576.783 13.5701 577.473 14.8562C578.163 16.1429 578.888 18.1751 579.085 19.3721C579.708 23.1636 580.665 24.9464 582.296 25.3559C583.149 25.57 586.39 25.578 589.496 25.3745C592.603 25.1704 595.42 25.2 595.757 25.4413C596.094 25.6819 597.414 27.0627 598.691 28.5096C600.853 30.96 601.012 31.4097 601.012 35.0669C601.012 38.4476 600.754 39.3489 599.156 41.5549C598.134 42.9641 597.299 44.4841 597.299 44.932C597.299 45.3805 596.91 46.278 596.436 46.927C595.6 48.0689 595.464 48.0726 592.171 47.0346C586.777 45.3353 583.578 47.4268 582.447 53.3921C582.099 55.2194 581.749 56.7586 581.666 56.8124C581.583 56.8662 580.826 57.3747 579.984 57.9426C578.905 58.6707 577.133 58.9744 573.964 58.9744C568.723 58.9744 568.438 59.2392 566.677 65.7482C565.577 69.8156 564.867 71.231 562.007 75.0584C560.537 77.0244 559.65 79.7413 558.32 86.3419C557.663 89.5995 558.432 89.9973 565.058 89.8272C570.089 89.6985 570.827 89.8241 572.111 91.0297C573.4 92.2404 573.667 92.2849 574.745 91.4702C576.105 90.4415 580.587 90.1958 580.587 91.1497C580.587 91.4943 582.049 92.7198 583.836 93.8723C588.082 96.6109 590.784 99.5549 591.708 102.447C592.276 104.229 593.238 105.284 595.771 106.903C601.808 110.763 602.314 113.478 597.895 118.31C595.601 120.818 595.27 120.976 592.94 120.663C589.664 120.224 587.816 118.95 586.532 116.248C585.491 114.053 583.685 113.083 581.446 113.514C580.312 113.732 578.136 119.68 578.12 122.609C578.112 123.851 578.322 124.004 579.504 123.616C582.093 122.767 586.019 122.574 587.254 123.234C588.859 124.093 589.266 126.429 588.237 128.874C587.177 131.393 588.272 133.739 591.411 135.678C597.008 139.135 596.204 141.652 586.225 151.921C583.013 155.226 581.777 156.102 580.294 156.123C579.019 156.141 577.531 156.93 575.635 158.593L572.85 161.038L574.397 163.965C575.824 166.666 575.933 167.454 575.804 174.151C575.671 181.009 575.738 181.462 577.025 182.362C577.774 182.887 579.647 183.317 581.189 183.319C585.319 183.324 587.4 184.845 588.384 188.581C589.965 194.579 589.392 195.778 584.531 196.654C583.213 196.891 581.438 197.435 580.587 197.863C579.736 198.291 578.3 198.933 577.396 199.29C575.859 199.896 575.758 200.177 575.837 203.609C575.889 205.899 575.606 207.659 575.084 208.288C573.953 209.649 570.547 209.568 567.69 208.112C566.411 207.46 564.356 206.737 563.123 206.506L560.882 206.086L561.207 208.509C561.386 209.842 561.19 212.579 560.773 214.59C560.118 217.74 559.602 218.619 557.046 220.937C553.541 224.116 552.187 226.763 553.353 228.166C553.776 228.675 554.463 229.093 554.879 229.093C556.256 229.093 557.785 231.402 557.577 233.167C557.435 234.372 556.554 235.452 554.59 236.831C550.992 239.357 550.919 240.872 554.356 241.745C557.561 242.56 558.923 243.689 558.923 245.533C558.923 247.951 557.672 249.903 555.438 250.968C552.436 252.398 550.45 252.23 548.61 250.391C547.263 249.045 547.077 248.436 547.399 246.424C547.608 245.118 547.946 243.613 548.151 243.081C548.568 241.993 546.963 241.142 543.421 240.573C542.213 240.378 540.298 239.446 539.165 238.5C536.689 236.434 535.737 232.241 536.776 227.974C537.632 224.458 536.647 221.977 534.611 222.522C533.855 222.724 532.639 222.894 531.91 222.898C531.042 222.904 530.46 223.404 530.222 224.351C530.023 225.145 529.088 226.81 528.144 228.051C525.035 232.137 523.838 234.426 523.41 237.1C522.826 240.747 521.468 243.133 519.353 244.226C517.706 249.649 517.455 252.359 525.508 253.021C526.364 252.279 527.742 250.559 528.57 249.198C530.318 246.325 530.924 245.818 532.621 245.805C533.759 245.796 534.902 247.205 538.349 252.866C538.778 253.57 539.057 255.252 538.968 256.602C538.829 258.718 538.45 259.296 536.221 260.788C534.799 261.741 532.617 263.907 531.371 265.602C530.126 267.297 528.627 268.684 528.039 268.684C526.99 268.684 524.819 267.005 523.833 265.43C523.558 264.991 521.328 263.985 518.878 263.197C513.251 261.384 510.766 261.968 508.441 265.649C507.225 267.574 506.541 268.066 505.077 268.066C503.823 268.066 502.548 268.736 501.066 270.175C498.491 272.674 491.091 275.686 487.182 275.827C482.906 275.981 482.624 276.724 482.947 286.962C483.098 291.741 482.997 296.256 482.723 296.995C482.162 298.511 478.563 300.234 475.954 300.234C473.599 300.234 472.635 297.343 473.207 292C473.587 288.451 473.511 288.051 472.35 287.518C471.649 287.196 470.416 285.681 469.611 284.15C468.805 282.619 467.699 281.279 467.151 281.173C465.811 280.914 464.342 283.302 463.687 286.81C463.321 288.769 462.426 290.493 460.899 292.182C459.663 293.55 458.651 295.086 458.651 295.596C458.651 296.949 460.894 296.732 463.002 295.174C464.54 294.037 465.178 293.916 467.069 294.401C469.009 294.897 469.467 295.388 470.464 298.028C471.613 301.071 471.612 301.087 470.236 303.582C468.223 307.229 466.297 307.706 462.031 305.615C457.702 303.494 456.654 303.519 454.318 305.801C452.737 307.346 451.917 307.657 449.421 307.657C445.24 307.657 444.848 306.986 445.378 300.734C445.816 295.563 446.635 293.069 448.363 291.635C448.878 291.208 449.762 289.466 450.327 287.764C451.199 285.142 451.868 284.341 454.694 282.534C458.165 280.315 458.698 279.285 457.071 277.936C456.281 277.281 455.504 277.33 452.702 278.213C450.784 278.818 449.136 279.741 448.931 280.326C448.564 281.374 444.185 287.518 442.799 288.931C442.388 289.35 441.862 290.817 441.63 292.192C441.398 293.566 440.764 295.133 440.223 295.674C438.743 297.153 434.359 296.443 431.214 294.214C427.029 291.25 425.123 290.839 420.697 291.947C418.593 292.473 415.757 293.136 414.395 293.418C412.509 293.81 411.233 294.709 409.034 297.197C405.883 300.762 405.267 302.556 405.815 306.566C406.295 310.086 406.915 310.699 409.871 310.581C412.638 310.471 412.657 310.487 417.954 317.772C421.236 322.285 421.636 324.578 419.966 329.308C419.455 330.755 419.038 332.75 419.038 333.741C419.038 337.204 415.909 341.633 411.481 344.439C410.299 345.188 409.226 345.375 407.848 345.073C405.955 344.657 405.905 344.562 406.266 342.08C407.027 336.849 407.688 333.911 408.401 332.597C409.744 330.12 409.317 327.06 407.432 325.655C404.407 323.4 402.945 321.633 402.945 320.232C402.945 318.698 400.826 316.936 398.982 316.936C398.316 316.936 396.889 316.617 395.81 316.227C394.011 315.577 393.611 315.693 391.004 317.619C387.883 319.924 387.114 321.318 386.493 325.796C386.166 328.152 385.774 328.895 384.629 329.329C383.192 329.876 383.188 329.904 384.181 332.581C384.777 334.189 385.016 335.945 384.77 336.923C384.343 338.622 381.643 340.443 379.551 340.443C376.091 340.443 374.914 334.512 377.818 331.717C379.297 330.295 379.3 330.273 378.128 328.785C376.292 326.452 376.574 322.973 378.805 320.433C380.959 317.981 381.184 316.022 379.42 315.078C378.411 314.538 377.913 314.679 376.765 315.829C374.946 317.654 373.133 317.361 371.749 315.018C371.143 313.994 369.337 311.571 367.734 309.633C363.267 304.232 362.712 303.239 362.712 300.652C362.712 298.75 363.146 297.82 364.816 296.151C367.541 293.428 370.248 293.272 371.787 295.749C373.161 297.96 375.182 300.234 375.774 300.234C376.031 300.234 376.678 299.796 377.214 299.262C378.622 297.854 378.447 293.927 376.887 291.945C374.992 289.538 369.769 287.041 367.744 287.575C366.849 287.811 364.125 287.954 361.691 287.894C357.718 287.795 357.164 287.929 356.275 289.198C355.73 289.975 355.284 291.202 355.284 291.924C355.284 293.52 353.972 294.683 350.448 296.208C346.831 297.774 344.762 300.338 344.762 303.256C344.762 304.526 344.393 306.07 343.941 306.688C343.027 307.937 343.514 308.684 339.279 299.535C338.235 297.28 336.93 295.262 336.378 295.05C334.484 294.324 332.679 294.668 331.907 295.903C331.482 296.584 330.705 297.141 330.181 297.141C329.156 297.141 325.466 295.397 324.955 294.672C324.258 293.682 321.789 292.79 321.009 293.248C320.55 293.517 318.733 295.478 316.971 297.604C313.237 302.113 311.636 302.488 307.206 299.894C304.895 298.54 304.461 298.453 304.143 299.285C303.938 299.817 303.916 300.808 304.094 301.486C304.593 303.393 302.794 310.181 301.115 312.725C300.285 313.982 298.616 316 297.405 317.21C294.523 320.092 292.527 320.1 289.408 317.245C286.633 314.705 285.805 314.605 283.074 316.472C279.731 318.759 278.904 320.965 279.321 326.479C279.736 331.962 278.721 336.344 276.416 339.022L274.96 340.714L271.409 339.595C268.224 338.591 267.759 338.573 266.912 339.42C266.065 340.268 266.105 341.013 267.304 346.643C268.04 350.095 268.917 353.435 269.255 354.064C270.235 355.894 270.01 359.604 268.893 360.033C268.357 360.238 266.776 360.03 265.379 359.569C263.385 358.911 262.785 358.896 262.584 359.497C262.444 359.918 261.253 361.693 259.939 363.442C258.566 365.268 257.285 367.85 256.929 369.51C256.588 371.1 255.341 373.909 254.158 375.753C249.891 382.408 248.502 383.102 245.13 380.267C244.069 379.374 243.047 378.796 242.861 378.982C242.674 379.169 242.768 382.008 243.068 385.292C243.668 391.847 243.273 393.194 240.551 393.877C239.464 394.15 238.954 394.816 238.668 396.337C238.22 398.722 237.053 399.896 233.968 401.068C230.261 402.474 229.514 403.454 229.975 406.297C230.198 407.674 230.632 409.064 230.937 409.388C231.943 410.453 231.559 414.425 230.342 415.524C228.942 416.791 228.336 416.182 227.264 412.431C226.319 409.119 225.754 408.736 221.14 408.277C215.608 407.728 215.703 407.419 215.735 425.812C215.756 438.207 215.966 441.846 216.885 445.784C217.672 449.159 217.872 451.473 217.552 453.517C216.362 461.105 217.39 498.438 219.227 514.365C220.256 523.287 219.168 530.976 216.876 530.976C215.187 530.976 212.878 529.467 212.547 528.146C212.356 527.387 212.572 522.494 213.026 517.272C214.183 503.961 213.884 460.569 212.524 444.404L212.136 439.798L207.977 435.407C203.221 430.384 202.824 429.746 201.16 424.441C199.721 419.853 199.655 418.009 200.853 415.914C202.137 413.67 201.975 409.025 200.484 405.266C199.769 403.467 198.793 399.49 198.314 396.428C196.801 386.76 195.285 380.481 194.318 379.871C193.382 379.281 191.789 379.848 186.927 382.502C184.911 383.602 181.117 384.014 181.701 383.07C181.844 382.838 181.565 382.32 181.081 381.919C179.939 380.971 178.135 381.912 174.32 385.446C171.933 387.657 171.537 388.344 171.824 389.777C172.067 390.994 171.697 392.167 170.525 393.893C168.821 396.403 168.595 397.419 169.271 399.545C169.541 400.394 169.267 401.173 168.435 401.925C166.974 403.247 165.882 402.784 165.882 400.845C165.882 397.55 161.538 396.863 158.482 399.676C156.93 401.104 156.425 402.37 155.332 407.563C152.93 418.978 151.732 421.745 148.881 422.46C145.351 423.346 144.613 421.603 146.694 417.297C148.448 413.67 148.297 412.066 146.079 410.756C145.059 410.155 144.062 409.01 143.861 408.213C143.366 406.24 145.949 402.449 149.486 399.958C152.08 398.13 152.265 397.814 152.265 395.204C152.265 393.183 152.018 392.407 151.374 392.407C150.413 392.407 145.046 396.813 143.713 398.696C143.265 399.329 141.742 400.437 140.33 401.157C138.917 401.877 136.56 403.702 135.092 405.211C132.102 408.286 130.401 408.503 130.095 405.849C129.944 404.537 130.476 403.575 132.416 401.655C135.207 398.893 135.233 398.806 134.216 395.415C133.271 392.261 134.175 390.197 136.751 389.632C137.794 389.403 138.648 389.019 138.648 388.779C138.648 388.538 139.135 388.312 139.731 388.276C143.791 388.032 154.741 381.936 154.741 379.92C154.741 378.807 153.469 376.968 152.251 376.316C150.486 375.372 149.007 376.373 146.749 380.042C145.692 381.758 144.185 383.406 143.399 383.705C142.613 384.004 140.886 384.983 139.561 385.882C138.141 386.844 136.507 387.44 135.579 387.332C133.302 387.067 133.079 383.811 135.126 380.719C135.961 379.458 137.41 376.909 138.346 375.055C139.281 373.201 140.818 370.705 141.76 369.51C142.701 368.314 143.57 366.65 143.69 365.813C144.006 363.613 142.07 363.45 140.344 365.531C136.483 370.187 136.357 370.264 134.346 369.225C133.333 368.702 131.728 367.301 130.779 366.112C128.666 363.464 127.288 363.391 125.03 365.807C124.077 366.827 123.018 367.662 122.678 367.662C122.339 367.662 120.475 366.829 118.535 365.808C114.749 363.818 111.826 363.755 108.195 365.583C104.699 367.344 103.615 366.29 102.88 360.415C102.454 357.014 102.358 356.864 100.272 356.361C99.0804 356.074 97.2383 355.572 96.1786 355.246C94.9636 354.872 92.7429 354.866 90.1705 355.23C86.8225 355.704 85.3852 356.31 82.1678 358.605C79.8585 360.251 77.4155 362.683 76.2264 364.517C73.7017 368.412 73.3439 368.624 71.4295 367.37C69.309 365.982 68.8304 364.496 70.2423 363.681C71.5149 362.945 72.0292 362.454 76.4418 357.754C78.144 355.941 81.4864 353.196 83.8694 351.655C86.2524 350.113 89.3317 347.992 90.7126 346.941C94.4809 344.072 99.3769 342.14 101.628 342.635C102.66 342.861 104.866 344.358 106.53 345.961C109.284 348.614 109.556 349.131 109.556 351.698C109.556 356.686 112.323 357.262 114.702 352.769C116.848 348.716 114.836 339.181 111.452 337.371C110.794 337.019 109.418 336.732 108.394 336.732C106.475 336.732 104.608 334.913 104.601 333.037C104.597 331.736 103.486 327.954 102.789 326.868C102.297 326.1 101.883 326.133 99.851 327.106C93.7003 330.052 92.2792 330.513 88.7418 330.711C86.425 330.841 84.3775 331.338 83.4807 331.989C82.6729 332.576 80.8984 333.873 79.5367 334.873C76.7309 336.933 75.0386 337.209 74.4593 335.7C74.0112 334.533 77.1883 331.56 80.9757 329.6C82.2266 328.954 84.4122 327.385 85.8322 326.115C87.2521 324.845 90.3159 322.824 92.6407 321.625C97.3994 319.169 98.2039 318.576 100.072 316.155C102.374 313.172 100.279 310.131 95.92 310.131C91.0048 310.131 90.4917 307.028 95.0101 304.632C97.8895 303.105 99.034 301.071 99.034 297.481C99.034 295.418 98.1037 294.047 96.7024 294.047C96.2375 294.047 94.9438 293.352 93.8279 292.501C91.5074 290.732 89.0334 290.541 85.8217 291.882C82.8444 293.126 79.9124 293.085 79.4166 291.793C78.8899 290.42 80.4935 289.343 85.0374 288.019C89.8863 286.605 93.8062 283.125 93.2126 280.76C92.6784 278.634 95.0014 276.32 98.1909 275.8C101.626 275.24 103.367 274.415 103.367 273.348C103.367 272.606 102.456 272.415 98.8792 272.407C96.4114 272.401 92.442 272.321 90.059 272.227C87.676 272.134 84.1244 271.995 82.1672 271.918C79.1201 271.798 78.6082 271.607 78.6082 270.59C78.6082 269.763 80.1036 268.521 83.5457 266.489C87.0305 264.433 89.2086 262.616 90.9473 260.314C92.7342 257.949 94.4636 256.528 97.2433 255.139C100.945 253.291 101.281 253.237 107.019 253.576C113.951 253.985 114.749 253.633 119.22 248.186C122.103 244.673 122.91 241.181 121.007 240.452C120.44 240.234 120.079 239.297 120.079 238.042C120.079 236.424 120.567 235.585 122.383 234.09C123.651 233.045 125.67 231.875 126.871 231.49C128.071 231.104 129.401 230.512 129.827 230.174C130.777 229.42 130.876 222.103 129.96 220.392C129.185 218.944 130.167 216.721 131.582 216.721C134.741 216.721 138.029 212.989 138.029 209.404C138.029 207.114 138.709 206.571 144.639 204.126C150.572 201.68 151.201 200.365 146.723 199.771C141.859 199.126 142.572 197.16 148.242 195.585C150.935 194.837 151.363 194.497 151.539 192.966C151.651 191.999 151.442 190.907 151.075 190.54C150.708 190.173 150.408 188.954 150.408 187.832C150.408 185.878 150.509 185.79 152.776 185.79C154.501 185.79 155.538 186.21 156.597 187.337C157.397 188.187 158.415 188.883 158.86 188.883C160.243 188.883 160.524 185.907 159.415 183.004C158.684 181.092 158.494 179.452 158.781 177.54L159.191 174.807L155.627 173.687L152.062 172.566L151.081 173.999C148.599 177.62 146.81 178.985 144.544 178.985C140.363 178.985 136.232 175.865 136.192 172.676C136.178 171.496 136.778 170.544 138.242 169.428C139.38 168.561 140.641 167.85 141.042 167.85C141.445 167.85 143.359 167.294 145.295 166.613C150.048 164.943 150.612 165.02 153.107 167.662C155.144 169.82 155.393 169.915 157.572 169.363C160.842 168.535 169.383 159.679 167.649 157.5C165.337 154.595 156.453 159.69 155.267 154.952C153.672 148.573 152.903 147.196 150.728 146.819C148.406 146.417 146.74 143.661 148.417 142.996C150.892 142.014 153.737 142.48 155.483 144.152C157.208 145.804 157.299 145.818 167.649 146.027C179.487 146.266 179.893 146.131 178.837 142.31C177.874 138.823 176.298 138.059 171.046 138.534L166.615 138.936L165.603 136.979C164.984 135.781 163.521 134.502 161.835 133.684C155.266 130.494 158.444 126.394 168.151 125.534C170.25 125.348 173.175 124.734 174.65 124.168C176.126 123.603 178.787 123.014 180.566 122.86C183.564 122.599 183.927 122.72 185.575 124.523L187.352 126.468L191.894 125.635L196.436 124.803L197.832 120.502C199.57 115.145 201.104 113.735 205.795 113.184C210.677 112.611 211.685 111.965 211.685 109.409C211.685 107.596 212.03 107.112 214.181 105.904C215.603 105.104 216.831 103.885 217.037 103.066C217.511 101.176 216.699 93.7281 215.97 93.2778C215.015 92.6876 215.33 90.4971 216.603 88.8801C217.564 87.6589 217.735 86.7471 217.453 84.3636C217.139 81.714 217.245 81.3311 218.394 80.9668C219.107 80.741 220.743 80.8486 222.032 81.2062C223.32 81.5637 225.16 81.8576 226.121 81.8594C229.22 81.8656 227.761 80.0382 222.246 77.0039C216.574 73.883 215.728 72.6031 216.139 67.7761C216.292 65.9809 216.654 65.4575 218.063 64.991C219.017 64.6749 220.775 64.6001 221.968 64.8234C223.797 65.1667 224.322 65.6598 225.309 67.9598C226.148 69.9177 226.942 70.8054 228.114 71.0992C230.561 71.7129 234.45 70.287 236.839 67.8998C239.131 65.6091 239.79 65.4346 242.406 66.4294C243.744 66.9379 244.595 66.8507 246.315 66.0291C247.524 65.452 248.931 64.7907 249.442 64.5599C250.846 63.9252 252.535 60.1801 252.535 57.6983C252.537 56.0725 252.065 55.0432 250.741 53.775C247.05 50.2409 248.463 47.1027 254.127 46.2539C257.376 45.7671 257.696 44.5867 255.339 41.7869C253.297 39.3607 252.585 37.3075 253.208 35.6404C254.005 33.5068 256.674 33.1622 259.556 34.8195C261.623 36.009 262.847 36.2157 267.551 36.1718C273.827 36.1124 277.472 34.8467 277.791 32.616C277.91 31.7845 276.957 30.1162 275.16 28.0135C272.196 24.5418 271.744 22.9266 273.268 21.2433C274 20.4348 274.841 20.3056 277.308 20.6223C279.806 20.9422 280.912 21.4982 282.883 23.4209C285.117 25.6009 285.698 25.8428 289.242 26.068C293.116 26.3148 293.155 26.3012 294.874 24.0482C296.54 21.8657 296.589 21.5985 296.176 16.9335C295.795 12.6385 295.873 12.0161 296.864 11.4618C297.662 11.0158 298.653 11.1055 300.331 11.7761C302.459 12.6273 302.826 12.6205 304.224 11.705C305.073 11.1489 305.767 10.3979 305.767 10.036C305.767 9.04063 313.138 1.55789 316.204 -0.55838C318.611 -2.22121 319.362 -2.41242 323.154 -2.33448C325.492 -2.28685 328.038 -1.96139 328.811 -1.61249C330.923 -0.658585 333.022 0.597801 333.797 1.37169C335.311 2.88544 338.087 1.30548 337.001 -0.451378C336.667 -0.990189 331.834 -2.57074 331.05 -2.39753C330.135 -2.19524 329.134 -4.27569 328.936 -6.78725C328.72 -9.52586 328.001 -11.6867 326.701 -13.4955C326.121 -14.3028 326.182 -14.8409 326.993 -16.0782C327.812 -17.3271 328.727 -17.7293 331.549 -18.0812C335.477 -18.5718 335.103 -18.8186 339.073 -13.1138C340.955 -10.4092 341.279 -10.202 343.064 -10.5583C346.22 -11.1893 347.762 -12.5551 348.192 -15.0995C349.047 -20.1659 349.56 -20.5297 353.862 -19.1131C357.918 -17.7769 359.501 -18.8464 361.452 -24.2401C363.671 -30.3768 363.562 -30.2729 367.266 -29.7804C372.865 -29.0363 374.391 -27.6023 376.346 -21.2473C376.746 -19.9476 377.454 -18.7376 377.921 -18.5588C378.387 -18.38 380.1 -19.2473 381.727 -20.4864C383.354 -21.7255 385.64 -23.3531 386.807 -24.1028C388.512 -25.1984 389.068 -26.0849 389.636 -28.6107C390.051 -30.4622 391.445 -33.3282 393.025 -35.5787C395.417 -38.9867 395.631 -39.57 395.001 -40.9526C394.206 -42.6965 392.059 -43.711 389.132 -43.7246C386.809 -43.7357 386.052 -44.1638 385.077 -46.0141C384.456 -47.1938 384.55 -47.5068 385.758 -48.2603C386.53 -48.7415 387.985 -49.328 388.992 -49.5625C389.998 -49.7976 391.879 -50.9438 393.171 -52.1105C395.776 -54.4619 397.813 -54.7823 399.776 -53.1492ZM261.077 65.3926C261.954 65.9345 263.251 64.6967 262.863 63.6871C262.643 63.1142 262.092 62.8587 261.535 63.0722C260.527 63.4588 260.246 64.8797 261.077 65.3926ZM555.209 98.5657C555.55 98.5657 555.828 98.1314 555.828 97.6013C555.828 97.0711 555.55 96.8088 555.209 97.0191C554.869 97.2295 554.59 97.6631 554.59 97.9836C554.59 98.304 554.869 98.5657 555.209 98.5657ZM428.164 284.024C429.15 283.206 429.169 280.913 428.198 279.943C426.219 277.965 423.989 279.881 423.989 283.558C423.989 285.389 424.103 285.493 425.688 285.095C426.622 284.86 427.736 284.379 428.164 284.024ZM307.854 287.861C309.058 287.861 309.691 286.825 309.226 285.615C308.722 284.302 307.357 284.886 307.117 286.518C306.989 287.391 307.247 287.861 307.854 287.861ZM179.96 366.557C185.403 360.412 186.595 356.84 183.368 356.352C182.431 356.21 181.475 356.052 181.241 356.002C181.008 355.95 180.13 356.17 179.289 356.49C178.135 356.928 176.836 358.989 173.987 364.906C170.106 372.969 169.518 375.086 171.163 375.086C172.175 375.086 173.81 373.501 179.96 366.557ZM163.03 394.263C163.977 394.263 164.644 392.963 164.644 391.119C164.644 389.764 163.99 389.596 162.911 390.675C161.885 391.7 161.97 394.263 163.03 394.263Z" fill="#471E1E"/>
</svg>
